# xmcd
#
# Track frame offsets:
#	150
#	20300
#	32637
#	61682
#	90742
#	109952
#	131925
#	150832
#	187670
#	209255
#	231192
#
# Disc length: 3418 seconds
#
# Revision: 1
# Processed by: cddbd v1.5.1PL0 Copyright (c) Steve Scherf et al.
# Submitted via: audiograbber 1.83.01
#
DISCID=820d580b
DTITLE=Peter Schreier, Eberhard Büchner - Capella Fidicinia - Heinrich Schütz -
DTITLE=Symphoniae Sacrae II (3)
DYEAR=1900
DGENRE=Classical
TTITLE0=Singet dem Herrn ein neues Lied (SWV 342)
TTITLE1=Claudio Monteverdi: Armato il cor
TTITLE2=Claudio Monteverdi: Zenfiro torna
TTITLE3=Es steh Gott auf, daß seine Feind zerstreuet werden (SWV 356)
TTITLE4=Iß dein Brot mit Freuden (SWV 358)
TTITLE5=Herr, neige deine Himmel und fahr herab (SWV 361)
TTITLE6=Frohlocket mit Händen und jauchzet dem Herren (SWV 349)
TTITLE7=Drei schöne Dinge seind (SWV 365)
TTITLE8=Herrlich lieb hab ich dich,o Herr, meine Stärke (SWV 348)
TTITLE9=Lobet den Herren in seinem Heilgtum (SWV 350)
TTITLE10=Freut euch des Herren, ihr Gerechten (SWV 367)
EXTD=
EXTT0=
EXTT1=
EXTT2=
EXTT3=
EXTT4=
EXTT5=
EXTT6=
EXTT7=
EXTT8=
EXTT9=
EXTT10=
PLAYORDER=
